<svg version="1.1" id="Layer_1" xmlns="http://www.w3.org/2000/svg" xmlns:xlink="http://www.w3.org/1999/xlink" x="0px" y="0px"
	 width="100%" viewBox="0 0 320 138" enable-background="new 0 0 320 138" xml:space="preserve">
<path fill="#47704C" opacity="1.000000" stroke="none" 
	d="
M321.000000,5.000000 
	C321.000000,48.020893 321.000000,91.041786 320.531342,134.531342 
	C217.425995,134.999954 114.789307,135.001022 12.152621,134.997437 
	C5.016788,134.997177 5.003304,134.981140 5.002388,127.764450 
	C4.997545,89.608910 4.999353,51.453365 5.000570,13.297821 
	C5.000835,5.005581 5.004061,5.000834 13.089772,5.000747 
	C115.726517,4.999643 218.363251,5.000009 321.000000,5.000000 
M102.024666,117.971977 
	C102.024666,117.971977 102.058243,117.902908 102.087593,118.636345 
	C105.298630,121.248466 108.254280,124.289146 111.772491,126.385834 
	C119.739212,131.133636 132.570084,129.438721 139.259949,123.212395 
	C144.503860,118.331856 144.686325,116.407059 140.661972,110.561264 
	C139.929398,109.497116 139.545090,108.193214 139.687744,106.576141 
	C142.153778,106.424904 144.656387,105.927696 147.079315,106.183983 
	C156.212723,107.150093 157.419601,106.566154 160.258575,97.614441 
	C163.929733,86.038712 167.885452,74.596764 174.824142,64.487442 
	C176.978683,61.348404 179.075897,57.874454 184.489227,57.048405 
	C183.901154,60.018684 183.678940,62.262993 183.002701,64.360954 
	C180.196335,73.067490 177.174057,81.705032 174.426651,90.429497 
	C173.881393,92.160942 174.197235,94.163559 174.016220,96.843628 
	C174.024994,98.190948 174.033768,99.538277 174.081039,101.665993 
	C175.376709,103.091354 176.646790,105.640289 177.974243,105.670540 
	C179.821625,105.712631 182.724762,104.313904 183.410294,102.755272 
	C186.535873,95.648949 189.280060,88.348755 191.710587,80.969780 
	C194.452103,72.646553 198.356995,65.105240 204.632980,58.931465 
	C205.790146,57.793129 207.349396,57.063530 208.723068,56.145279 
	C209.152512,56.403202 209.581970,56.661125 210.011414,56.919048 
	C209.680191,59.091660 209.623062,61.351631 208.963913,63.419727 
	C207.302383,68.632820 205.187424,73.705368 203.631516,78.946274 
	C202.972366,81.166542 203.259155,83.667633 203.016174,86.945656 
	C203.048477,90.282539 203.080780,93.619431 202.737656,97.452332 
	C203.529663,98.287170 204.321671,99.122002 205.573227,100.088173 
	C205.867538,100.272835 206.023972,100.538643 206.082764,101.676521 
	C207.059433,103.052315 208.093552,105.642639 209.003067,105.599602 
	C213.636749,105.380386 218.232605,104.436783 222.853500,103.837807 
	C224.920044,103.569939 227.637482,102.596786 228.992447,103.516243 
	C236.515335,108.621124 246.214676,106.924812 251.923752,99.429604 
	C252.281052,99.895683 252.638351,100.361763 253.052856,101.627548 
	C253.868362,102.971031 254.716309,105.487114 255.494049,105.465607 
	C260.157898,105.336563 265.284302,105.694679 269.354828,103.874680 
	C276.842255,100.526962 278.892548,92.355194 282.713623,85.784698 
	C285.331421,81.283234 284.524719,77.146210 282.272552,73.134583 
	C281.412201,71.602135 279.179932,69.589752 277.946350,69.817665 
	C276.209229,70.138603 274.393829,72.084038 273.366180,73.789360 
	C270.886444,77.904243 268.998688,82.374306 266.548615,86.509407 
	C265.589386,88.128357 263.764526,89.234413 262.333923,90.574066 
	C261.921722,90.279289 261.509521,89.984520 261.097321,89.689743 
	C264.847351,79.089813 268.340393,68.388672 272.457794,57.933422 
	C274.461853,52.844582 274.319397,48.386879 270.762878,44.507515 
	C269.596680,43.235432 266.927368,43.084381 264.905640,42.924789 
	C262.821259,42.760262 260.415649,43.934288 258.625885,43.260380 
	C252.243439,40.857166 246.388412,41.820992 242.114487,46.679070 
	C237.463043,51.966297 233.363022,57.906242 229.954407,64.076385 
	C225.797531,71.601006 222.683716,79.696800 218.937454,87.458046 
	C218.278687,88.822861 216.729568,89.757912 215.591629,90.891441 
	C215.123459,90.605873 214.655289,90.320297 214.187119,90.034729 
	C215.933502,84.936150 217.719666,79.850792 219.417633,74.736145 
	C222.589554,65.181694 223.980072,55.783279 217.317200,46.914879 
	C213.350204,41.634724 207.382797,40.527657 201.514633,43.796635 
	C197.813004,45.858696 193.773987,47.315075 189.426758,48.911819 
	C189.132446,48.727158 188.976013,48.461353 188.922516,47.345898 
	C188.576706,43.385052 186.073990,42.042274 182.471436,42.014793 
	C178.713303,41.986134 174.997238,42.015575 173.338181,46.973476 
	C172.892365,46.926762 172.446548,46.880047 171.940262,46.112926 
	C171.061493,44.833591 170.123703,42.464813 169.316589,42.508533 
	C167.778687,42.591843 165.956619,43.757706 164.919083,45.021381 
	C163.817703,46.362801 163.503540,48.344978 162.822708,50.038136 
	C158.484802,60.826309 154.298294,71.679886 149.699997,82.356026 
	C148.362000,85.462532 145.841370,88.059669 143.862854,90.890289 
	C143.235779,90.560822 142.608704,90.231354 141.981628,89.901886 
	C142.968079,86.828491 143.881287,83.729248 144.954849,80.686584 
	C148.047501,71.921295 151.292282,63.208698 154.296402,54.413601 
	C155.608139,50.573219 153.147583,44.020622 150.010925,42.557110 
	C145.737488,40.563190 144.177979,44.131466 142.105331,46.618835 
	C141.689987,47.117287 141.065918,47.441807 140.248611,47.760868 
	C140.248611,47.760868 140.157471,47.473072 140.366058,46.728622 
	C139.364899,45.448589 138.388382,43.104290 137.358139,43.080441 
	C133.709427,42.995964 129.402863,42.607067 126.493202,44.302734 
	C114.034546,51.563290 109.537140,64.098717 106.390640,77.258217 
	C106.269302,77.765686 106.858124,78.442947 107.015762,79.779305 
	C106.954956,80.519478 106.894142,81.259644 106.302162,82.223183 
	C106.240097,83.162506 106.178032,84.101822 106.016243,85.915665 
	C106.048553,88.262573 106.080864,90.609474 105.704636,93.514885 
	C105.364426,96.443588 105.082977,99.341202 109.573105,100.088081 
	C109.867401,100.272629 110.023766,100.538345 110.083977,101.661697 
	C111.277481,103.042809 112.490082,105.612854 113.661095,105.594048 
	C118.131104,105.522240 122.849213,105.338188 126.983406,103.840248 
	C132.196518,101.951385 132.577438,101.599388 134.429977,107.362488 
	C131.434311,109.677574 130.177460,113.718964 125.285835,114.248947 
	C118.345444,115.000908 112.746635,112.594009 107.099663,109.306061 
	C105.224915,108.214493 102.968323,107.778732 100.275520,106.784019 
	C95.836166,102.227486 91.396820,97.670944 86.988808,92.318123 
	C87.994141,89.540596 89.054062,86.781433 89.995705,83.982475 
	C94.970222,69.196060 99.974403,54.419079 104.827988,39.592899 
	C106.033646,35.910000 107.753952,33.496025 111.743797,31.999825 
	C115.636436,30.540077 119.350044,27.849497 122.322113,24.878771 
	C126.048500,21.154066 123.925049,14.859473 118.426773,12.911824 
	C118.132477,12.727154 117.976036,12.461346 117.917915,11.328059 
	C117.710876,7.899524 115.637146,6.965420 112.521210,6.975110 
	C105.552193,6.996782 102.758850,12.106893 99.371704,16.927616 
	C97.851532,19.091190 95.127724,21.346867 92.656975,21.745932 
	C80.561165,23.699610 68.489799,25.128263 57.660378,31.814604 
	C51.919971,35.358864 47.730122,41.979416 49.016224,48.881687 
	C49.048534,50.573250 49.080849,52.264812 48.703636,54.517082 
	C48.636349,58.133621 48.072937,62.009399 53.573097,63.088078 
	C53.867393,63.272629 54.023766,63.538349 54.080032,64.629990 
	C56.395897,70.043312 63.438622,72.980110 68.470757,70.362114 
	C69.752762,69.695145 71.580368,67.335823 71.288277,66.827011 
	C69.322205,63.402184 67.494995,59.252995 64.389328,57.284115 
	C60.152687,54.598232 58.375839,52.089230 61.751789,48.211346 
	C64.165329,45.438961 67.363014,42.878902 70.733345,41.521637 
	C75.609917,39.557789 80.930984,38.637787 86.115196,37.516403 
	C90.392532,36.591183 91.524574,37.761196 90.169746,41.814884 
	C86.279427,53.454800 82.154892,65.016396 78.258362,76.654297 
	C77.717773,78.268921 77.943863,80.140221 77.338348,82.988983 
	C76.377174,82.926514 75.416008,82.864044 74.585258,82.008720 
	C72.394081,74.475502 59.970741,71.177940 53.084610,76.566292 
	C50.178177,78.840553 46.089203,80.973259 48.016159,86.945786 
	C48.048470,90.282631 48.080784,93.619469 47.737667,97.452347 
	C48.529675,98.287178 49.321686,99.122017 50.786003,100.268021 
	C61.446175,106.292030 70.355995,102.161324 77.863319,95.865303 
	C84.437431,102.042145 90.739830,107.963684 97.086540,114.646301 
	C98.755669,115.743805 100.424805,116.841301 102.024666,117.971977 
z"/>
<path fill="#47704C" opacity="1.000000" stroke="none" 
	d="
M321.000000,4.500000 
	C218.363251,5.000009 115.726517,4.999643 13.089772,5.000747 
	C5.004061,5.000834 5.000835,5.005581 5.000570,13.297821 
	C4.999353,51.453365 4.997545,89.608910 5.002388,127.764450 
	C5.003304,134.981140 5.016788,134.997177 12.152621,134.997437 
	C114.789307,135.001022 217.425995,134.999954 320.531342,135.000000 
	C321.000000,136.333328 321.000000,137.666672 321.000000,139.000000 
	C214.333344,139.000000 107.666679,139.000000 1.000015,139.000000 
	C1.000010,93.000008 1.000010,47.000019 1.000005,1.000021 
	C107.666649,1.000014 214.333298,1.000014 320.999969,1.000007 
	C321.000000,2.000000 321.000000,3.000000 321.000000,4.500000 
z"/>
<path fill="#FFFFFF" opacity="1.000000" stroke="none" 
	d="
M203.113098,96.956314 
	C203.080780,93.619431 203.048477,90.282539 203.398376,86.297684 
	C204.137466,84.237991 204.415161,82.800514 204.864548,81.418884 
	C207.116333,74.495712 209.420578,67.589630 211.690857,60.672440 
	C212.814148,57.249939 212.020370,53.877754 208.827972,52.689396 
	C207.005341,52.010929 203.304260,53.147388 202.059189,54.731903 
	C197.667160,60.321331 193.176208,66.088257 190.207977,72.477806 
	C186.339020,80.806297 183.917740,89.803970 180.809387,98.490746 
	C179.569916,101.954597 177.426605,103.277763 174.042526,100.885597 
	C174.033768,99.538277 174.024994,98.190948 174.393188,96.255280 
	C177.980072,85.833771 181.282730,76.029335 184.342682,66.149742 
	C185.245880,63.233540 185.939941,60.096455 185.885757,57.075745 
	C185.800522,52.325405 181.775269,50.488361 178.131653,53.518852 
	C175.644470,55.587498 173.505096,58.205261 171.652878,60.883644 
	C163.731308,72.338509 159.157104,85.308144 154.973846,98.448158 
	C153.894989,101.836929 152.386826,104.662697 148.044235,101.707794 
	C147.252777,101.169250 145.674454,101.565933 144.521271,101.816139 
	C137.299942,103.382950 133.858871,102.045341 129.870926,95.648880 
	C124.546173,102.306656 117.736610,103.457237 110.042213,100.885239 
	C110.023766,100.538345 109.867401,100.272629 109.191910,99.693161 
	C107.911537,97.184296 107.012352,95.070335 106.113174,92.956383 
	C106.080864,90.609474 106.048553,88.262573 106.374451,85.319054 
	C106.766220,83.814903 106.799774,82.907356 106.833328,81.999817 
	C106.894142,81.259644 106.954956,80.519478 107.398117,79.214615 
	C110.812958,71.591835 113.387665,64.289619 116.989624,57.535206 
	C121.889000,48.347874 129.305054,43.609749 140.157471,47.473072 
	C140.157471,47.473072 140.248611,47.760868 140.591263,48.067505 
	C141.982330,48.489403 143.855789,48.926395 143.955154,48.671574 
	C145.400177,44.965885 148.100662,45.878696 151.886597,46.514950 
	C149.645279,52.975533 147.514145,59.028324 145.445847,65.102516 
	C142.680969,73.222435 139.780060,81.304832 137.370819,89.530243 
	C136.836288,91.355209 138.110352,93.709908 138.551651,95.820709 
	C140.596085,95.152115 143.190842,95.043633 144.565338,93.693169 
	C147.084000,91.218544 149.490448,88.272415 150.871628,85.061699 
	C155.797592,73.610886 160.541824,62.063404 164.777222,50.343761 
	C166.315536,46.087151 168.212097,45.181110 172.000732,46.833336 
	C172.446548,46.880047 172.892365,46.926762 174.088409,46.974041 
	C179.667572,45.835224 184.486984,44.813667 188.957474,48.114407 
	C188.976013,48.461353 189.132446,48.727158 189.799744,49.294205 
	C191.062653,50.782379 191.952591,51.888168 192.679901,52.791908 
	C196.143677,50.706291 199.306686,48.351116 202.820160,46.779316 
	C210.317627,43.425228 217.855606,47.474289 217.814682,55.305298 
	C217.783585,61.254807 216.451385,67.323181 214.858612,73.107498 
	C212.803879,80.569405 208.593903,87.536964 210.353165,95.877670 
	C214.186523,96.329651 217.287369,95.460312 219.029709,91.792709 
	C223.046890,83.336617 226.929840,74.815582 231.035614,66.403076 
	C235.058578,58.160210 239.080032,49.578014 248.844955,46.850262 
	C252.398804,45.857517 256.522705,47.049259 260.378967,46.950451 
	C263.533051,46.869637 266.675873,46.352200 270.515503,45.957150 
	C269.833496,49.362206 269.600311,51.986309 268.772369,54.406986 
	C265.209869,64.822777 261.329865,75.131760 257.886230,85.585297 
	C256.852692,88.722702 256.858124,92.202362 256.387573,95.525223 
	C256.890289,95.888351 257.393005,96.251480 257.895721,96.614601 
	C259.788635,95.714386 262.392578,95.316368 263.446808,93.823799 
	C267.258270,88.427467 270.562225,82.671432 274.028687,77.033287 
	C275.233917,75.072975 275.659088,72.195343 279.218048,73.616890 
	C282.622894,74.976883 281.611908,77.585655 280.690277,79.546646 
	C278.273163,84.689789 275.750519,89.843292 272.659607,94.595741 
	C268.088654,101.623848 260.027344,103.931358 252.995636,100.827835 
	C252.638351,100.361763 252.281052,99.895683 251.501862,98.994423 
	C250.224167,95.190842 248.947296,95.917847 246.681473,97.642334 
	C244.233627,99.505333 241.326935,101.181580 238.371002,101.872765 
	C232.510330,103.243179 227.970215,101.019524 225.757477,94.494766 
	C220.275681,101.520218 214.011917,104.157860 206.042526,100.885597 
	C206.023972,100.538643 205.867538,100.272835 205.222412,99.730209 
	C204.285446,98.566940 203.699265,97.761627 203.113098,96.956314 
M124.160431,91.213867 
	C125.112930,90.104713 126.362808,89.137146 126.969337,87.863266 
	C130.719589,79.986664 134.364532,72.059006 137.961777,64.110901 
	C139.726761,60.211182 139.979782,56.464832 136.024597,53.578182 
	C132.073593,50.694572 129.096115,53.344341 126.787376,55.863560 
	C117.872055,65.591705 113.454887,77.304581 113.177185,90.422783 
	C113.138428,92.253265 115.991142,95.871819 116.598442,95.686737 
	C119.075562,94.931831 121.200211,93.020348 123.479897,91.485901 
	C123.479897,91.485901 123.533257,91.471954 124.160431,91.213867 
M235.440262,74.058449 
	C234.488846,77.985802 233.686890,81.957329 232.543320,85.827911 
	C231.433228,89.585213 231.557388,93.672783 234.669434,95.563309 
	C238.014557,97.595398 241.112137,94.650375 243.502151,91.983231 
	C244.044495,91.377998 244.632477,90.755730 244.970413,90.034042 
	C249.481201,80.400764 254.230164,70.860489 258.190704,61.004063 
	C258.961761,59.085121 257.160980,55.467823 255.509399,53.507713 
	C254.621124,52.453495 251.083603,52.462971 249.510117,53.352386 
	C241.766296,57.729561 238.828094,65.607849 235.440262,74.058449 
z"/>
<path fill="#FFFFFF" opacity="1.000000" stroke="none" 
	d="
M48.113094,96.956314 
	C48.080784,93.619469 48.048470,90.282631 48.375561,86.334671 
	C51.123817,80.472260 55.324959,77.352295 60.942902,78.186470 
	C65.573219,78.874008 69.960083,81.201073 74.454834,82.801575 
	C75.416008,82.864044 76.377174,82.926514 77.764183,82.132355 
	C84.045860,65.098701 89.901695,48.921673 96.220604,31.465384 
	C89.562332,32.487999 84.513580,32.888168 79.666138,34.096165 
	C72.457626,35.892548 64.886024,37.233505 59.479729,43.063297 
	C56.420643,46.362011 54.503799,50.659328 56.597279,54.746258 
	C57.960903,57.408360 61.495590,58.968071 64.082771,60.989510 
	C65.326599,61.961346 66.628510,62.858864 67.904114,63.790031 
	C66.459030,64.859322 64.878227,66.963318 63.595467,66.795074 
	C60.339836,66.368042 57.217762,64.922791 54.042210,63.885235 
	C54.023766,63.538349 53.867393,63.272629 53.192360,62.693626 
	C51.578804,59.518242 50.345982,56.737309 49.113163,53.956375 
	C49.080849,52.264812 49.048534,50.573250 49.392612,48.274902 
	C50.408119,41.634777 53.843761,37.570072 58.880577,34.575928 
	C66.870766,29.826147 75.803513,28.027748 84.795288,27.145096 
	C92.728683,26.366339 99.173134,24.761505 103.028030,16.595451 
	C106.005112,10.288906 111.300705,9.310252 117.957466,12.114400 
	C117.976036,12.461346 118.132477,12.727154 118.834694,13.337585 
	C120.861313,17.466778 120.683159,20.958212 117.101982,23.287567 
	C113.763931,25.458776 110.021530,26.999180 106.595978,29.049299 
	C105.134132,29.924187 103.413567,31.157984 102.860672,32.624569 
	C100.361191,39.254581 98.281853,46.041565 95.968346,52.743416 
	C91.723900,65.038826 87.421120,77.314102 82.946037,90.162262 
	C83.610031,90.650917 85.283752,91.882660 86.957474,93.114403 
	C91.396820,97.670944 95.836166,102.227486 100.721024,107.227043 
	C103.997742,109.864548 106.796463,112.102570 109.666679,114.244781 
	C116.411705,119.279007 123.460075,120.089447 130.837570,115.620361 
	C132.343674,114.708000 133.853516,113.801819 135.482056,112.820198 
	C138.580521,116.532387 136.647415,119.751534 133.908844,121.318733 
	C128.817383,124.232407 123.013336,126.363503 117.068115,124.436401 
	C111.901718,122.761742 107.049377,120.118248 102.058243,117.902908 
	C102.058243,117.902908 102.024666,117.971977 101.925491,117.646980 
	C100.231613,116.176399 98.636917,115.030823 97.042221,113.885231 
	C90.739830,107.963684 84.437431,102.042145 77.863319,95.865303 
	C70.355995,102.161324 61.446175,106.292030 50.328815,99.820145 
	C49.285450,98.566956 48.699272,97.761635 48.113094,96.956314 
M63.641411,96.815781 
	C64.866959,96.179672 66.092499,95.543571 67.967888,94.534836 
	C69.269127,92.897995 71.641212,91.251251 71.626198,89.626579 
	C71.602341,87.046211 61.732891,83.325401 59.011456,84.497353 
	C55.713184,85.917709 53.362335,88.467987 54.175079,92.072670 
	C55.179050,96.525482 58.804199,97.547890 63.641411,96.815781 
z"/>
<path fill="#47704C" opacity="1.000000" stroke="none" 
	d="
M253.024246,101.227692 
	C260.027344,103.931358 268.088654,101.623848 272.659607,94.595741 
	C275.750519,89.843292 278.273163,84.689789 280.690277,79.546646 
	C281.611908,77.585655 282.622894,74.976883 279.218048,73.616890 
	C275.659088,72.195343 275.233917,75.072975 274.028687,77.033287 
	C270.562225,82.671432 267.258270,88.427467 263.446808,93.823799 
	C262.392578,95.316368 259.788635,95.714386 257.895721,96.614601 
	C257.393005,96.251480 256.890289,95.888351 256.387573,95.525223 
	C256.858124,92.202362 256.852692,88.722702 257.886230,85.585297 
	C261.329865,75.131760 265.209869,64.822777 268.772369,54.406986 
	C269.600311,51.986309 269.833496,49.362206 270.515503,45.957150 
	C266.675873,46.352200 263.533051,46.869637 260.378967,46.950451 
	C256.522705,47.049259 252.398804,45.857517 248.844955,46.850262 
	C239.080032,49.578014 235.058578,58.160210 231.035614,66.403076 
	C226.929840,74.815582 223.046890,83.336617 219.029709,91.792709 
	C217.287369,95.460312 214.186523,96.329651 210.353165,95.877670 
	C208.593903,87.536964 212.803879,80.569405 214.858612,73.107498 
	C216.451385,67.323181 217.783585,61.254807 217.814682,55.305298 
	C217.855606,47.474289 210.317627,43.425228 202.820160,46.779316 
	C199.306686,48.351116 196.143677,50.706291 192.679901,52.791908 
	C191.952591,51.888168 191.062653,50.782379 190.029510,49.359871 
	C193.773987,47.315075 197.813004,45.858696 201.514633,43.796635 
	C207.382797,40.527657 213.350204,41.634724 217.317200,46.914879 
	C223.980072,55.783279 222.589554,65.181694 219.417633,74.736145 
	C217.719666,79.850792 215.933502,84.936150 214.187119,90.034729 
	C214.655289,90.320297 215.123459,90.605873 215.591629,90.891441 
	C216.729568,89.757912 218.278687,88.822861 218.937454,87.458046 
	C222.683716,79.696800 225.797531,71.601006 229.954407,64.076385 
	C233.363022,57.906242 237.463043,51.966297 242.114487,46.679070 
	C246.388412,41.820992 252.243439,40.857166 258.625885,43.260380 
	C260.415649,43.934288 262.821259,42.760262 264.905640,42.924789 
	C266.927368,43.084381 269.596680,43.235432 270.762878,44.507515 
	C274.319397,48.386879 274.461853,52.844582 272.457794,57.933422 
	C268.340393,68.388672 264.847351,79.089813 261.097321,89.689743 
	C261.509521,89.984520 261.921722,90.279289 262.333923,90.574066 
	C263.764526,89.234413 265.589386,88.128357 266.548615,86.509407 
	C268.998688,82.374306 270.886444,77.904243 273.366180,73.789360 
	C274.393829,72.084038 276.209229,70.138603 277.946350,69.817665 
	C279.179932,69.589752 281.412201,71.602135 282.272552,73.134583 
	C284.524719,77.146210 285.331421,81.283234 282.713623,85.784698 
	C278.892548,92.355194 276.842255,100.526962 269.354828,103.874680 
	C265.284302,105.694679 260.157898,105.336563 255.494049,105.465607 
	C254.716309,105.487114 253.868362,102.971031 253.024246,101.227692 
z"/>
<path fill="#47704C" opacity="1.000000" stroke="none" 
	d="
M110.063095,101.273468 
	C117.736610,103.457237 124.546173,102.306656 129.870926,95.648880 
	C133.858871,102.045341 137.299942,103.382950 144.521271,101.816139 
	C145.674454,101.565933 147.252777,101.169250 148.044235,101.707794 
	C152.386826,104.662697 153.894989,101.836929 154.973846,98.448158 
	C159.157104,85.308144 163.731308,72.338509 171.652878,60.883644 
	C173.505096,58.205261 175.644470,55.587498 178.131653,53.518852 
	C181.775269,50.488361 185.800522,52.325405 185.885757,57.075745 
	C185.939941,60.096455 185.245880,63.233540 184.342682,66.149742 
	C181.282730,76.029335 177.980072,85.833771 174.443069,95.854019 
	C174.197235,94.163559 173.881393,92.160942 174.426651,90.429497 
	C177.174057,81.705032 180.196335,73.067490 183.002701,64.360954 
	C183.678940,62.262993 183.901154,60.018684 184.489227,57.048405 
	C179.075897,57.874454 176.978683,61.348404 174.824142,64.487442 
	C167.885452,74.596764 163.929733,86.038712 160.258575,97.614441 
	C157.419601,106.566154 156.212723,107.150093 147.079315,106.183983 
	C144.656387,105.927696 142.153778,106.424904 138.943878,106.788071 
	C137.133347,107.000000 136.066666,107.000000 135.000000,107.000000 
	C132.577438,101.599388 132.196518,101.951385 126.983406,103.840248 
	C122.849213,105.338188 118.131104,105.522240 113.661095,105.594048 
	C112.490082,105.612854 111.277481,103.042809 110.063095,101.273468 
z"/>
<path fill="#47704C" opacity="1.000000" stroke="none" 
	d="
M54.061119,64.257614 
	C57.217762,64.922791 60.339836,66.368042 63.595467,66.795074 
	C64.878227,66.963318 66.459030,64.859322 67.904114,63.790031 
	C66.628510,62.858864 65.326599,61.961346 64.082771,60.989510 
	C61.495590,58.968071 57.960903,57.408360 56.597279,54.746258 
	C54.503799,50.659328 56.420643,46.362011 59.479729,43.063297 
	C64.886024,37.233505 72.457626,35.892548 79.666138,34.096165 
	C84.513580,32.888168 89.562332,32.487999 96.220604,31.465384 
	C89.901695,48.921673 84.045860,65.098701 78.002525,81.584213 
	C77.943863,80.140221 77.717773,78.268921 78.258362,76.654297 
	C82.154892,65.016396 86.279427,53.454800 90.169746,41.814884 
	C91.524574,37.761196 90.392532,36.591183 86.115196,37.516403 
	C80.930984,38.637787 75.609917,39.557789 70.733345,41.521637 
	C67.363014,42.878902 64.165329,45.438961 61.751789,48.211346 
	C58.375839,52.089230 60.152687,54.598232 64.389328,57.284115 
	C67.494995,59.252995 69.322205,63.402184 71.288277,66.827011 
	C71.580368,67.335823 69.752762,69.695145 68.470757,70.362114 
	C63.438622,72.980110 56.395897,70.043312 54.061119,64.257614 
z"/>
<path fill="#47704C" opacity="1.000000" stroke="none" 
	d="
M171.970490,46.473129 
	C168.212097,45.181110 166.315536,46.087151 164.777222,50.343761 
	C160.541824,62.063404 155.797592,73.610886 150.871628,85.061699 
	C149.490448,88.272415 147.084000,91.218544 144.565338,93.693169 
	C143.190842,95.043633 140.596085,95.152115 138.551651,95.820709 
	C138.110352,93.709908 136.836288,91.355209 137.370819,89.530243 
	C139.780060,81.304832 142.680969,73.222435 145.445847,65.102516 
	C147.514145,59.028324 149.645279,52.975533 151.886597,46.514950 
	C148.100662,45.878696 145.400177,44.965885 143.955154,48.671574 
	C143.855789,48.926395 141.982330,48.489403 140.735992,48.110336 
	C141.065918,47.441807 141.689987,47.117287 142.105331,46.618835 
	C144.177979,44.131466 145.737488,40.563190 150.010925,42.557110 
	C153.147583,44.020622 155.608139,50.573219 154.296402,54.413601 
	C151.292282,63.208698 148.047501,71.921295 144.954849,80.686584 
	C143.881287,83.729248 142.968079,86.828491 141.981628,89.901886 
	C142.608704,90.231354 143.235779,90.560822 143.862854,90.890289 
	C145.841370,88.059669 148.362000,85.462532 149.699997,82.356026 
	C154.298294,71.679886 158.484802,60.826309 162.822708,50.038136 
	C163.503540,48.344978 163.817703,46.362801 164.919083,45.021381 
	C165.956619,43.757706 167.778687,42.591843 169.316589,42.508533 
	C170.123703,42.464813 171.061493,44.833591 171.970490,46.473129 
z"/>
<path fill="#47704C" opacity="1.000000" stroke="none" 
	d="
M86.973145,92.716263 
	C85.283752,91.882660 83.610031,90.650917 82.946037,90.162262 
	C87.421120,77.314102 91.723900,65.038826 95.968346,52.743416 
	C98.281853,46.041565 100.361191,39.254581 102.860672,32.624569 
	C103.413567,31.157984 105.134132,29.924187 106.595978,29.049299 
	C110.021530,26.999180 113.763931,25.458776 117.101982,23.287567 
	C120.683159,20.958212 120.861313,17.466778 119.064468,13.403255 
	C123.925049,14.859473 126.048500,21.154066 122.322113,24.878771 
	C119.350044,27.849497 115.636436,30.540077 111.743797,31.999825 
	C107.753952,33.496025 106.033646,35.910000 104.827988,39.592899 
	C99.974403,54.419079 94.970222,69.196060 89.995705,83.982475 
	C89.054062,86.781433 87.994141,89.540596 86.973145,92.716263 
z"/>
<path fill="#47704C" opacity="1.000000" stroke="none" 
	d="
M134.714996,107.181244 
	C136.066666,107.000000 137.133347,107.000000 138.600006,107.000000 
	C139.545090,108.193214 139.929398,109.497116 140.661972,110.561264 
	C144.686325,116.407059 144.503860,118.331856 139.259949,123.212395 
	C132.570084,129.438721 119.739212,131.133636 111.772491,126.385834 
	C108.254280,124.289146 105.298630,121.248466 102.072922,118.269623 
	C107.049377,120.118248 111.901718,122.761742 117.068115,124.436401 
	C123.013336,126.363503 128.817383,124.232407 133.908844,121.318733 
	C136.647415,119.751534 138.580521,116.532387 135.482056,112.820198 
	C133.853516,113.801819 132.343674,114.708000 130.837570,115.620361 
	C123.460075,120.089447 116.411705,119.279007 109.666679,114.244781 
	C106.796463,112.102570 103.997742,109.864548 101.026421,107.356613 
	C102.968323,107.778732 105.224915,108.214493 107.099663,109.306061 
	C112.746635,112.594009 118.345444,115.000908 125.285835,114.248947 
	C130.177460,113.718964 131.434311,109.677574 134.714996,107.181244 
z"/>
<path fill="#47704C" opacity="1.000000" stroke="none" 
	d="
M174.061783,101.275795 
	C177.426605,103.277763 179.569916,101.954597 180.809387,98.490746 
	C183.917740,89.803970 186.339020,80.806297 190.207977,72.477806 
	C193.176208,66.088257 197.667160,60.321331 202.059189,54.731903 
	C203.304260,53.147388 207.005341,52.010929 208.827972,52.689396 
	C212.020370,53.877754 212.814148,57.249939 211.690857,60.672440 
	C209.420578,67.589630 207.116333,74.495712 204.864548,81.418884 
	C204.415161,82.800514 204.137466,84.237991 203.448303,85.845406 
	C203.259155,83.667633 202.972366,81.166542 203.631516,78.946274 
	C205.187424,73.705368 207.302383,68.632820 208.963913,63.419727 
	C209.623062,61.351631 209.680191,59.091660 210.011414,56.919048 
	C209.581970,56.661125 209.152512,56.403202 208.723068,56.145279 
	C207.349396,57.063530 205.790146,57.793129 204.632980,58.931465 
	C198.356995,65.105240 194.452103,72.646553 191.710587,80.969780 
	C189.280060,88.348755 186.535873,95.648949 183.410294,102.755272 
	C182.724762,104.313904 179.821625,105.712631 177.974243,105.670540 
	C176.646790,105.640289 175.376709,103.091354 174.061783,101.275795 
z"/>
<path fill="#47704C" opacity="1.000000" stroke="none" 
	d="
M117.937691,11.721230 
	C111.300705,9.310252 106.005112,10.288906 103.028030,16.595451 
	C99.173134,24.761505 92.728683,26.366339 84.795288,27.145096 
	C75.803513,28.027748 66.870766,29.826147 58.880577,34.575928 
	C53.843761,37.570072 50.408119,41.634777 49.442516,47.854607 
	C47.730122,41.979416 51.919971,35.358864 57.660378,31.814604 
	C68.489799,25.128263 80.561165,23.699610 92.656975,21.745932 
	C95.127724,21.346867 97.851532,19.091190 99.371704,16.927616 
	C102.758850,12.106893 105.552193,6.996782 112.521210,6.975110 
	C115.637146,6.965420 117.710876,7.899524 117.937691,11.721230 
z"/>
<path fill="#47704C" opacity="1.000000" stroke="none" 
	d="
M206.062653,101.281059 
	C214.011917,104.157860 220.275681,101.520218 225.757477,94.494766 
	C227.970215,101.019524 232.510330,103.243179 238.371002,101.872765 
	C241.326935,101.181580 244.233627,99.505333 246.681473,97.642334 
	C248.947296,95.917847 250.224167,95.190842 251.241638,98.845123 
	C246.214676,106.924812 236.515335,108.621124 228.992447,103.516243 
	C227.637482,102.596786 224.920044,103.569939 222.853500,103.837807 
	C218.232605,104.436783 213.636749,105.380386 209.003067,105.599602 
	C208.093552,105.642639 207.059433,103.052315 206.062653,101.281059 
z"/>
<path fill="#47704C" opacity="1.000000" stroke="none" 
	d="
M140.261765,47.100845 
	C129.305054,43.609749 121.889000,48.347874 116.989624,57.535206 
	C113.387665,64.289619 110.812958,71.591835 107.448257,78.845505 
	C106.858124,78.442947 106.269302,77.765686 106.390640,77.258217 
	C109.537140,64.098717 114.034546,51.563290 126.493202,44.302734 
	C129.402863,42.607067 133.709427,42.995964 137.358139,43.080441 
	C138.388382,43.104290 139.364899,45.448589 140.261765,47.100845 
z"/>
<path fill="#47704C" opacity="1.000000" stroke="none" 
	d="
M74.520050,82.405151 
	C69.960083,81.201073 65.573219,78.874008 60.942902,78.186470 
	C55.324959,77.352295 51.123817,80.472260 48.425415,85.882401 
	C46.089203,80.973259 50.178177,78.840553 53.084610,76.566292 
	C59.970741,71.177940 72.394081,74.475502 74.520050,82.405151 
z"/>
<path fill="#47704C" opacity="1.000000" stroke="none" 
	d="
M188.940002,47.730152 
	C184.486984,44.813667 179.667572,45.835224 174.419098,46.903969 
	C174.997238,42.015575 178.713303,41.986134 182.471436,42.014793 
	C186.073990,42.042274 188.576706,43.385052 188.940002,47.730152 
z"/>
<path fill="#47704C" opacity="1.000000" stroke="none" 
	d="
M48.908401,54.236729 
	C50.345982,56.737309 51.578804,59.518242 52.962654,62.628002 
	C48.072937,62.009399 48.636349,58.133621 48.908401,54.236729 
z"/>
<path fill="#47704C" opacity="1.000000" stroke="none" 
	d="
M105.908905,93.235634 
	C107.012352,95.070335 107.911537,97.184296 108.962204,99.627548 
	C105.082977,99.341202 105.364426,96.443588 105.908905,93.235634 
z"/>
<path fill="#47704C" opacity="1.000000" stroke="none" 
	d="
M97.064377,114.265770 
	C98.636917,115.030823 100.231613,116.176399 101.960129,117.630394 
	C100.424805,116.841301 98.755669,115.743805 97.064377,114.265770 
z"/>
<path fill="#47704C" opacity="1.000000" stroke="none" 
	d="
M202.925385,97.204323 
	C203.699265,97.761627 204.285446,98.566940 204.992645,99.664551 
	C204.321671,99.122002 203.529663,98.287170 202.925385,97.204323 
z"/>
<path fill="#47704C" opacity="1.000000" stroke="none" 
	d="
M47.925381,97.204330 
	C48.699272,97.761635 49.285450,98.566956 49.992661,99.664566 
	C49.321686,99.122017 48.529675,98.287178 47.925381,97.204330 
z"/>
<path fill="#47704C" opacity="1.000000" stroke="none" 
	d="
M106.567749,82.111496 
	C106.799774,82.907356 106.766220,83.814903 106.424316,84.881790 
	C106.178032,84.101822 106.240097,83.162506 106.567749,82.111496 
z"/>
<path fill="#47704C" opacity="1.000000" stroke="none" 
	d="
M235.678848,73.731522 
	C238.828094,65.607849 241.766296,57.729561 249.510117,53.352386 
	C251.083603,52.462971 254.621124,52.453495 255.509399,53.507713 
	C257.160980,55.467823 258.961761,59.085121 258.190704,61.004063 
	C254.230164,70.860489 249.481201,80.400764 244.970413,90.034042 
	C244.632477,90.755730 244.044495,91.377998 243.502151,91.983231 
	C241.112137,94.650375 238.014557,97.595398 234.669434,95.563309 
	C231.557388,93.672783 231.433228,89.585213 232.543320,85.827911 
	C233.686890,81.957329 234.488846,77.985802 235.678848,73.731522 
z"/>
<path fill="#47704C" opacity="1.000000" stroke="none" 
	d="
M123.454712,91.534981 
	C121.200211,93.020348 119.075562,94.931831 116.598442,95.686737 
	C115.991142,95.871819 113.138428,92.253265 113.177185,90.422783 
	C113.454887,77.304581 117.872055,65.591705 126.787376,55.863560 
	C129.096115,53.344341 132.073593,50.694572 136.024597,53.578182 
	C139.979782,56.464832 139.726761,60.211182 137.961777,64.110901 
	C134.364532,72.059006 130.719589,79.986664 126.969337,87.863266 
	C126.362808,89.137146 125.112930,90.104713 123.756989,90.945679 
	C123.636620,89.589745 123.748688,88.419037 124.229797,87.427376 
	C128.125076,79.398605 132.213318,71.460114 135.928360,63.350094 
	C136.669388,61.732399 136.065262,59.498520 136.081406,57.548767 
	C134.044296,58.211136 131.500122,58.315899 130.055389,59.629692 
	C122.703300,66.315483 120.227585,75.513596 118.003029,84.737679 
	C117.495934,86.840370 117.453209,89.055061 117.159203,91.534981 
	C119.861488,91.534981 121.658096,91.534981 123.454712,91.534981 
z"/>
<path fill="#47704C" opacity="1.000000" stroke="none" 
	d="
M62.999283,96.833336 
	C58.804199,97.547890 55.179050,96.525482 54.175079,92.072670 
	C53.362335,88.467987 55.713184,85.917709 59.011456,84.497353 
	C61.732891,83.325401 71.602341,87.046211 71.626198,89.626579 
	C71.641212,91.251251 69.269127,92.897995 67.586319,94.257835 
	C66.181694,92.353287 65.490005,90.150955 64.017914,89.302254 
	C63.052292,88.745567 60.958645,90.145485 59.850002,90.510963 
	C61.240620,93.302704 62.119953,95.068024 62.999283,96.833336 
z"/>
<path fill="#47704C" opacity="1.000000" stroke="none" 
	d="
M63.320351,96.824554 
	C62.119953,95.068024 61.240620,93.302704 59.850002,90.510963 
	C60.958645,90.145485 63.052292,88.745567 64.017914,89.302254 
	C65.490005,90.150955 66.181694,92.353287 67.261398,94.444153 
	C66.092499,95.543571 64.866959,96.179672 63.320351,96.824554 
z"/>
<path fill="#47704C" opacity="1.000000" stroke="none" 
	d="
M123.467300,91.510437 
	C121.658096,91.534981 119.861488,91.534981 117.159203,91.534981 
	C117.453209,89.055061 117.495934,86.840370 118.003029,84.737679 
	C120.227585,75.513596 122.703300,66.315483 130.055389,59.629692 
	C131.500122,58.315899 134.044296,58.211136 136.081406,57.548767 
	C136.065262,59.498520 136.669388,61.732399 135.928360,63.350094 
	C132.213318,71.460114 128.125076,79.398605 124.229797,87.427376 
	C123.748688,88.419037 123.636620,89.589745 123.443398,91.074722 
	C123.533257,91.471954 123.479897,91.485901 123.467300,91.510437 
z"/>
</svg>