<svg
                    version="1.0"
                    xmlns="http://www.w3.org/2000/svg"
                    width="320.000000pt"
                    height="138.000000pt"
                    viewBox="0 0 320.000000 138.000000"
                    preserveAspectRatio="xMidYMid meet"
                >
                    <metadata>
                        Created by potrace 1.10, written by Peter Selinger
                        2001-2011
                    </metadata>
                    <g
                        transform="translate(0.000000,138.000000) scale(0.100000,-0.100000)"
                        fill="#ffffff"
                        stroke="none"
                    >
                        <path
                            d="M1085 1314 c-43 -10 -69 -31 -106 -85 l-38 -56 -108 -18 c-257 -42
            -364 -110 -380 -243 -13 -111 38 -194 136 -222 41 -11 75 1 97 35 23 35 6 65
            -52 93 -39 19 -44 26 -44 55 0 42 22 72 68 96 48 24 170 54 204 49 l27 -3 -53
            -165 c-29 -91 -60 -182 -69 -204 -19 -42 -22 -43 -106 -11 -52 19 -102 14
            -149 -16 -50 -30 -72 -74 -72 -147 0 -57 3 -65 34 -100 33 -36 37 -37 113 -40
            68 -3 84 0 126 22 26 14 54 26 60 26 7 0 46 -34 87 -76 86 -87 202 -168 263
            -185 100 -27 227 10 274 80 30 45 29 75 -3 100 -36 28 -43 27 -99 -16 -38 -30
            -56 -38 -89 -38 -65 1 -113 32 -234 150 l-114 110 40 100 c22 55 59 163 82
            240 64 210 64 211 118 232 26 9 63 34 84 55 32 32 38 44 38 82 0 33 -6 49 -26
            70 -15 14 -32 26 -38 26 -6 0 -20 2 -31 4 -11 2 -29 2 -40 0z m87 -51 c10 -9
            18 -30 18 -49 0 -41 -48 -85 -118 -108 l-50 -17 -47 -147 c-73 -233 -105 -323
            -134 -385 l-28 -58 108 -106 c130 -126 175 -161 236 -179 59 -18 115 -4 154
            38 19 19 36 28 51 26 63 -9 -1 -99 -90 -124 -118 -35 -210 7 -383 173 -98 95
            -119 111 -129 98 -23 -28 -113 -65 -157 -65 -54 0 -108 22 -122 48 -17 31 -13
            110 6 143 21 35 68 59 117 59 35 0 121 -33 132 -51 12 -20 27 -6 53 54 35 76
            154 447 147 454 -8 9 -152 -17 -221 -38 -110 -34 -165 -86 -165 -157 0 -41 46
            -92 83 -92 28 0 43 -26 26 -46 -27 -32 -119 -2 -150 49 -25 42 -32 97 -19 145
            27 104 126 158 350 192 132 20 126 17 159 75 17 29 40 60 53 69 30 21 96 21
            120 -1z"
                        />
                        <path
                            d="M1080 1195 c-13 -14 -20 -25 -16 -25 12 0 56 32 56 41 0 16 -16 10
            -40 -16z"
                        />
                        <path
                            d="M556 527 c-14 -15 -26 -35 -26 -47 0 -28 35 -60 66 -60 32 0 86 25
            109 50 16 18 15 20 -22 44 -60 40 -97 43 -127 13z m80 -32 c16 -13 17 -16 4
            -25 -36 -24 -84 -4 -60 25 16 19 31 19 56 0z"
                        />
                        <path
                            d="M1765 960 c-16 -4 -48 -5 -70 -3 -57 7 -75 -18 -129 -169 -65 -184
            -141 -326 -162 -305 -9 8 26 123 87 286 67 178 59 190 -116 188 -113 -2 -122
            -4 -159 -29 -101 -70 -196 -276 -196 -426 0 -141 94 -205 220 -151 l48 21 29
            -21 c24 -18 40 -21 122 -18 114 3 113 3 165 154 56 163 154 333 192 333 25 0
            16 -51 -41 -220 -30 -90 -55 -178 -55 -196 0 -69 76 -86 117 -26 12 18 40 88
            63 156 44 132 92 224 141 269 61 56 64 13 9 -144 -56 -161 -55 -254 4 -301 31
            -26 129 -24 172 3 l34 21 26 -21 c34 -27 127 -29 178 -4 32 15 37 15 60 0 41
            -27 133 -23 179 9 45 30 107 122 137 200 18 50 19 57 5 84 -18 34 -53 47 -84
            30 -12 -6 -35 -39 -52 -73 -53 -105 -89 -145 -89 -98 0 11 25 91 56 178 67
            186 74 226 48 254 -16 18 -27 20 -69 15 -27 -3 -66 -2 -85 2 -117 27 -229 -76
            -304 -278 -35 -94 -74 -168 -100 -190 -27 -21 -20 26 20 141 75 217 40 332
            -101 332 -37 0 -65 -7 -90 -22 -44 -26 -50 -26 -83 -2 -32 22 -86 31 -127 21z
            m-363 -57 c17 -15 20 -15 28 -3 6 8 10 18 10 23 0 4 14 7 30 7 23 0 30 -5 30
            -19 0 -10 -25 -87 -56 -171 -93 -256 -102 -310 -50 -310 53 0 130 131 206 350
            24 69 48 131 53 138 13 17 44 15 55 -4 9 -16 11 -16 33 0 37 25 102 21 138
            -10 17 -14 31 -33 31 -42 0 -13 4 -12 23 5 41 38 92 63 129 63 120 0 140 -88
            69 -296 -24 -67 -41 -136 -41 -161 0 -39 2 -43 25 -43 49 0 105 81 161 232 82
            220 191 308 307 249 37 -19 38 -19 48 0 5 11 20 19 34 19 35 0 33 -28 -9 -137
            -102 -268 -120 -363 -72 -363 34 0 97 75 132 155 28 65 42 79 68 69 28 -11 24
            -35 -20 -123 -30 -61 -58 -102 -87 -126 -38 -33 -46 -36 -96 -33 -49 3 -58 6
            -76 34 l-21 31 -37 -33 c-32 -30 -43 -34 -91 -34 -56 0 -75 10 -97 51 -10 19
            -12 18 -51 -16 -36 -30 -48 -35 -94 -35 -45 0 -56 4 -73 26 -33 43 -28 106 24
            258 50 147 53 171 28 198 -26 29 -53 21 -98 -26 -60 -62 -97 -133 -149 -283
            -25 -73 -50 -141 -56 -153 -13 -24 -48 -27 -57 -4 -3 9 21 101 55 205 34 103
            62 201 62 218 0 31 -22 61 -45 61 -54 0 -168 -183 -235 -377 -32 -93 -47 -124
            -63 -129 -13 -4 -25 -1 -32 9 -8 11 -16 13 -26 6 -8 -5 -35 -9 -61 -9 -51 0
            -88 24 -88 57 0 14 -5 12 -27 -9 -41 -38 -66 -48 -118 -48 -90 0 -121 73 -91
            216 28 142 112 285 189 324 49 24 118 21 149 -7z"
                        />
                        <path
                            d="M1279 847 c-45 -30 -83 -87 -119 -180 -53 -135 -51 -237 5 -237 49 0
            109 84 175 245 48 117 50 146 14 174 -33 26 -34 26 -75 -2z m58 -44 c19 -50
            -134 -349 -168 -327 -26 16 0 145 49 241 45 87 103 129 119 86z"
                        />
                        <path
                            d="M2475 852 c-60 -37 -127 -163 -152 -290 -18 -91 -9 -132 30 -132 55
            0 112 77 183 251 41 100 44 114 33 141 -11 26 -36 48 -56 48 -4 0 -21 -8 -38
            -18z m59 -44 c19 -31 -108 -303 -154 -328 -23 -12 -30 -4 -30 35 0 104 117
            328 163 312 6 -2 15 -10 21 -19z"
                        />
                    </g>
                </svg>